<?xml version="1.0" encoding="UTF-8" standalone="no"?>
<!-- Created with Inkscape (http://www.inkscape.org/) -->

<svg
   xmlns:dc="http://purl.org/dc/elements/1.1/"
   xmlns:cc="http://creativecommons.org/ns#"
   xmlns:rdf="http://www.w3.org/1999/02/22-rdf-syntax-ns#"
   xmlns:svg="http://www.w3.org/2000/svg"
   xmlns="http://www.w3.org/2000/svg"
   version="1.1"
   width="108.08001"
   height="105.58044"
   id="svg3135">
  <defs
     id="defs3137" />
  <metadata
     id="metadata3140">
    <rdf:RDF>
      <cc:Work
         rdf:about="">
        <dc:format>image/svg+xml</dc:format>
        <dc:type
           rdf:resource="http://purl.org/dc/dcmitype/StillImage" />
        <dc:title></dc:title>
      </cc:Work>
    </rdf:RDF>
  </metadata>
  <g
     transform="translate(-323.12153,-148.19141)"
     id="layer1">
    <g
       transform="translate(244.9139,-14.214167)"
       id="g4055">
      <path
         d="m 107.40972,165.00135 c -2.2762,0.0149 -4.55884,0.30241 -6.91176,0.87577 -6.476001,1.57816 -11.330291,5.75951 -15.497171,13.33252 -7.85217,14.26974 -5.46703,25.0596 13.31069,59.08143 8.047001,14.57976 15.496921,26.70737 16.553031,26.98547 3.26568,0.8804 53.12473,-30.28616 58.93163,-36.85039 6.63688,-7.50215 9.72732,-14.75358 9.87375,-23.02654 0.0634,-3.57908 -0.36421,-6.6272 -1.11647,-9.39709 l -31.95161,18.51049 16.20861,-34.6995 c -7.52065,-2.73076 -15.98646,-1.98439 -24.07684,2.32681 l -6.67058,3.51651 -3.98167,-6.35841 c -5.86132,-9.32845 -14.80816,-14.36213 -24.67161,-14.29707 z"
         id="path3024-6-50-4-0-1-7"
         style="fill:#ffae85;fill-opacity:1;stroke:#343434;stroke-width:5.22075558;stroke-linejoin:round;stroke-miterlimit:4;stroke-opacity:1;stroke-dasharray:none" />
      <path
         d="m 98.605059,203.97852 c -0.20709,-1.6906 -1.10407,-3.76073 -1.82861,-5.34784 -0.72456,-1.62162 -1.72511,-2.72568 -3.72625,-2.27715 -2.00114,0.44852 -2.55317,2.07013 -2.07013,3.69175 0.48302,1.75959 1.17308,3.89873 1.89762,5.24432 0.72454,1.34561 2.76019,2.07016 4.07127,1.51812 1.34559,-0.55205 1.86312,-1.4146 1.6561,-2.8292 m 2.139141,0.17253 c 0.72457,1.34559 2.72568,2.07016 4.07127,1.51813 1.31108,-0.55206 1.86314,-1.41461 1.65613,-2.82921 -0.2414,-1.6906 -1.1041,-3.76073 -1.86314,-5.34784 -0.72454,-1.62162 -1.69061,-2.72568 -3.69175,-2.27717 -2.035621,0.44854 -2.553151,2.07015 -2.104631,3.69175 0.51755,1.75961 1.207581,3.89876 1.932121,5.24434 m 13.97343,-6.58993 c -2.20813,-0.34502 -3.41572,1.20758 -4.41629,4.07127 -2.89819,8.17704 -7.24549,10.76472 -10.14368,12.62784 -2.898191,1.86314 -2.725681,3.86425 -1.863111,5.07184 0.93156,1.31108 2.622161,1.96663 5.002831,0.72454 8.48755,-4.38178 12.0413,-13.42137 13.04187,-16.7681 0.89705,-3.0707 0.69003,-5.34787 -1.62162,-5.72739"
         id="path4243-3"
         style="font-size:40px;font-style:normal;font-variant:normal;font-weight:normal;font-stretch:normal;line-height:125%;letter-spacing:0px;word-spacing:0px;color:#000000;fill:#343434;fill-opacity:1;fill-rule:nonzero;stroke:none;marker:none;visibility:visible;display:inline;overflow:visible;enable-background:accumulate;font-family:mini-wakuwaku-maru;-inkscape-font-specification:mini-wakuwaku-maru" />
      <path
         d="m 120.76682,210.00489 c 1.44911,1.10409 4.4508,2.65669 6.17594,3.51924 1.72511,0.86256 3.62273,0.20709 4.20927,-0.93156 0.58654,-1.13857 0.72454,-2.55317 -0.44853,-3.51924 -1.17308,-0.96606 -4.41629,-3.03619 -6.65894,-4.31276 -2.27717,-1.2421 -4.2093,-0.0346 -4.62333,1.34558 -0.44851,1.38007 -0.2414,2.69118 1.34559,3.89874 m 17.69969,-2.24264 c -0.75905,1.58711 -2.27714,4.69232 -4.27828,7.59051 -3.0707,4.45079 -7.07296,5.65838 -9.55712,5.96889 -2.4842,0.31051 -3.48474,1.4146 -3.58826,3.00171 -0.10342,1.7941 1.31108,3.00169 3.55375,3.13969 3.0362,0.17253 6.86597,-0.58654 11.86877,-4.7268 5.17534,-4.31279 7.28,-10.83372 7.76302,-12.76584 0.48304,-1.96664 -0.2414,-3.48473 -1.5181,-4.10578 -1.24207,-0.62105 -3.27772,-0.13798 -4.24378,1.89762"
         id="path4245-4"
         style="font-size:40px;font-style:normal;font-variant:normal;font-weight:normal;font-stretch:normal;line-height:125%;letter-spacing:0px;word-spacing:0px;color:#000000;fill:#343434;fill-opacity:1;fill-rule:nonzero;stroke:none;marker:none;visibility:visible;display:inline;overflow:visible;enable-background:accumulate;font-family:mini-wakuwaku-maru;-inkscape-font-specification:mini-wakuwaku-maru" />
      <path
         d="m 160.98179,195.68411 8.68736,7.8411 -17.21482,7.65529 z"
         id="path4250-2"
         style="fill:#343434;fill-opacity:1;stroke:none" />
    </g>
  </g>
</svg>
