<?xml version="1.0" encoding="UTF-8" standalone="no"?>
<!-- Created with Inkscape (http://www.inkscape.org/) -->

<svg
   xmlns:dc="http://purl.org/dc/elements/1.1/"
   xmlns:cc="http://creativecommons.org/ns#"
   xmlns:rdf="http://www.w3.org/1999/02/22-rdf-syntax-ns#"
   xmlns:svg="http://www.w3.org/2000/svg"
   xmlns="http://www.w3.org/2000/svg"
   version="1.1"
   width="455.00476"
   height="109.68024"
   id="svg3449">
  <defs
     id="defs3451" />
  <metadata
     id="metadata3454">
    <rdf:RDF>
      <cc:Work
         rdf:about="">
        <dc:format>image/svg+xml</dc:format>
        <dc:type
           rdf:resource="http://purl.org/dc/dcmitype/StillImage" />
        <dc:title></dc:title>
      </cc:Work>
    </rdf:RDF>
  </metadata>
  <g
     transform="translate(-143.94427,-228.95825)"
     id="layer1">
    <g
       transform="translate(65.736646,66.55267)"
       id="g4055">
      <path
         d="m 107.40972,165.00135 c -2.2762,0.0149 -4.55884,0.30241 -6.91176,0.87577 -6.476001,1.57816 -11.330291,5.75951 -15.497171,13.33252 -7.85217,14.26974 -5.46703,25.0596 13.31069,59.08143 8.047001,14.57976 15.496921,26.70737 16.553031,26.98547 3.26568,0.8804 53.12473,-30.28616 58.93163,-36.85039 6.63688,-7.50215 9.72732,-14.75358 9.87375,-23.02654 0.0634,-3.57908 -0.36421,-6.6272 -1.11647,-9.39709 l -31.95161,18.51049 16.20861,-34.6995 c -7.52065,-2.73076 -15.98646,-1.98439 -24.07684,2.32681 l -6.67058,3.51651 -3.98167,-6.35841 c -5.86132,-9.32845 -14.80816,-14.36213 -24.67161,-14.29707 z"
         id="path3024-6-50-4-0-1-7"
         style="fill:#ffae85;fill-opacity:1;stroke:#343434;stroke-width:5.22075558;stroke-linejoin:round;stroke-miterlimit:4;stroke-opacity:1;stroke-dasharray:none" />
      <path
         d="m 98.605059,203.97852 c -0.20709,-1.6906 -1.10407,-3.76073 -1.82861,-5.34784 -0.72456,-1.62162 -1.72511,-2.72568 -3.72625,-2.27715 -2.00114,0.44852 -2.55317,2.07013 -2.07013,3.69175 0.48302,1.75959 1.17308,3.89873 1.89762,5.24432 0.72454,1.34561 2.76019,2.07016 4.07127,1.51812 1.34559,-0.55205 1.86312,-1.4146 1.6561,-2.8292 m 2.139141,0.17253 c 0.72457,1.34559 2.72568,2.07016 4.07127,1.51813 1.31108,-0.55206 1.86314,-1.41461 1.65613,-2.82921 -0.2414,-1.6906 -1.1041,-3.76073 -1.86314,-5.34784 -0.72454,-1.62162 -1.69061,-2.72568 -3.69175,-2.27717 -2.035621,0.44854 -2.553151,2.07015 -2.104631,3.69175 0.51755,1.75961 1.207581,3.89876 1.932121,5.24434 m 13.97343,-6.58993 c -2.20813,-0.34502 -3.41572,1.20758 -4.41629,4.07127 -2.89819,8.17704 -7.24549,10.76472 -10.14368,12.62784 -2.898191,1.86314 -2.725681,3.86425 -1.863111,5.07184 0.93156,1.31108 2.622161,1.96663 5.002831,0.72454 8.48755,-4.38178 12.0413,-13.42137 13.04187,-16.7681 0.89705,-3.0707 0.69003,-5.34787 -1.62162,-5.72739"
         id="path4243-3"
         style="font-size:40px;font-style:normal;font-variant:normal;font-weight:normal;font-stretch:normal;line-height:125%;letter-spacing:0px;word-spacing:0px;color:#000000;fill:#343434;fill-opacity:1;fill-rule:nonzero;stroke:none;marker:none;visibility:visible;display:inline;overflow:visible;enable-background:accumulate;font-family:mini-wakuwaku-maru;-inkscape-font-specification:mini-wakuwaku-maru" />
      <path
         d="m 120.76682,210.00489 c 1.44911,1.10409 4.4508,2.65669 6.17594,3.51924 1.72511,0.86256 3.62273,0.20709 4.20927,-0.93156 0.58654,-1.13857 0.72454,-2.55317 -0.44853,-3.51924 -1.17308,-0.96606 -4.41629,-3.03619 -6.65894,-4.31276 -2.27717,-1.2421 -4.2093,-0.0346 -4.62333,1.34558 -0.44851,1.38007 -0.2414,2.69118 1.34559,3.89874 m 17.69969,-2.24264 c -0.75905,1.58711 -2.27714,4.69232 -4.27828,7.59051 -3.0707,4.45079 -7.07296,5.65838 -9.55712,5.96889 -2.4842,0.31051 -3.48474,1.4146 -3.58826,3.00171 -0.10342,1.7941 1.31108,3.00169 3.55375,3.13969 3.0362,0.17253 6.86597,-0.58654 11.86877,-4.7268 5.17534,-4.31279 7.28,-10.83372 7.76302,-12.76584 0.48304,-1.96664 -0.2414,-3.48473 -1.5181,-4.10578 -1.24207,-0.62105 -3.27772,-0.13798 -4.24378,1.89762"
         id="path4245-4"
         style="font-size:40px;font-style:normal;font-variant:normal;font-weight:normal;font-stretch:normal;line-height:125%;letter-spacing:0px;word-spacing:0px;color:#000000;fill:#343434;fill-opacity:1;fill-rule:nonzero;stroke:none;marker:none;visibility:visible;display:inline;overflow:visible;enable-background:accumulate;font-family:mini-wakuwaku-maru;-inkscape-font-specification:mini-wakuwaku-maru" />
      <path
         d="m 160.98179,195.68411 8.68736,7.8411 -17.21482,7.65529 z"
         id="path4250-2"
         style="fill:#343434;fill-opacity:1;stroke:none" />
    </g>
    <path
       d="m 270.34832,300.01268 0,-53.70924 c 0,-0.67936 0.33971,-1.25689 1.01915,-1.73255 0.67942,-0.47554 1.42682,-0.71333 2.24214,-0.71341 0.88324,8e-5 1.6646,0.23797 2.34404,0.71341 0.67942,0.47566 1.01913,1.05319 1.01915,1.73255 l 0,20.48493 13.14705,0 c 0.67941,5e-5 1.22295,0.27183 1.63064,0.81532 0.47558,0.54359 0.71338,1.18905 0.7134,1.93639 -2e-5,0.74742 -0.23771,1.39287 -0.7134,1.93638 -0.40769,0.54359 -0.95123,0.81538 -1.63064,0.81533 l -13.14705,0 0,27.72089 c -2e-5,3.32924 0.67942,5.67328 2.0383,7.03214 1.42679,1.29094 3.90674,1.93639 7.4398,1.93639 l 2.85363,0 c 0.88324,0 1.59665,0.30575 2.14021,0.91724 0.61147,0.54356 0.91721,1.22298 0.91724,2.0383 -3e-5,0.81532 -0.30577,1.52872 -0.91724,2.14021 -0.54356,0.61149 -1.25697,0.91724 -2.14021,0.91724 l -2.85363,0 c -10.73507,0 -16.10258,-4.99384 -16.10258,-14.98152"
       id="path3134"
       style="font-size:40px;font-style:normal;font-weight:normal;line-height:125%;letter-spacing:0px;word-spacing:0px;fill:#343434;fill-opacity:1;stroke:none;font-family:Dosis;-inkscape-font-specification:Dosis" />
    <path
       d="m 296.25074,308.36972 c 0,-0.67942 0.23771,-1.35886 0.7134,-2.0383 0.47559,-0.67942 1.01915,-1.01915 1.63064,-1.01915 0.47559,0 1.22298,0.40766 2.24214,1.22298 1.01915,0.74739 2.47992,1.52872 4.38234,2.34404 1.9024,0.81533 4.1785,1.22299 6.82831,1.22299 3.60097,0 6.25076,-0.67942 7.94938,-2.03831 1.69857,-1.35885 2.54785,-3.09141 2.54788,-5.19766 -3e-5,-2.44594 -0.8833,-4.38233 -2.6498,-5.80916 -1.69862,-1.49474 -3.77088,-2.58184 -6.21682,-3.26129 -2.44598,-0.67941 -4.92591,-1.42678 -7.4398,-2.24213 -2.44596,-0.81529 -4.55221,-2.14019 -6.31873,-3.97468 -1.69859,-1.9024 -2.54788,-4.41629 -2.54788,-7.54172 0,-3.73684 1.3249,-6.96416 3.97469,-9.68193 2.71772,-2.78562 6.76036,-4.17847 12.12789,-4.17852 3.32921,5e-5 6.42063,0.54359 9.27428,1.63064 2.92152,1.0192 4.38232,2.14027 4.38234,3.3632 -2e-5,0.67947 -0.2718,1.42686 -0.81532,2.24213 -0.54359,0.81537 -1.18904,1.22303 -1.93638,1.22298 -0.20383,5e-5 -1.46083,-0.47556 -3.77086,-1.42681 -2.31011,-0.95117 -4.65416,-1.42676 -7.03214,-1.42681 -3.39719,5e-5 -5.94506,0.81537 -7.64363,2.44596 -1.69859,1.63069 -2.54788,3.46514 -2.54788,5.50342 0,2.10627 0.84929,3.77088 2.54788,4.99383 1.76652,1.22301 3.87275,2.17421 6.31873,2.85363 2.51389,0.61151 4.99382,1.35888 7.4398,2.24213 2.51389,0.81534 4.62012,2.31011 6.31874,4.48426 1.76649,2.10625 2.64976,4.85796 2.64979,8.25512 -3e-5,4.0766 -1.46083,7.30392 -4.38235,9.68193 -2.85365,2.31009 -6.8623,3.46511 -12.02598,3.46511 -4.48429,0 -8.28911,-0.78135 -11.41448,-2.34404 -3.05746,-1.63064 -4.58618,-3.29525 -4.58618,-4.99384"
       id="path3136"
       style="font-size:40px;font-style:normal;font-weight:normal;line-height:125%;letter-spacing:0px;word-spacing:0px;fill:#343434;fill-opacity:1;stroke:none;font-family:Dosis;-inkscape-font-specification:Dosis" />
    <path
       d="m 333.51202,296.54757 0,-27.21132 c 0,-0.61144 0.30574,-1.18897 0.91723,-1.73256 0.67944,-0.54349 1.49476,-0.81527 2.44596,-0.81532 0.81532,5e-5 1.56269,0.27183 2.24214,0.81532 0.67944,0.54359 1.01915,1.12112 1.01915,1.73256 l 0,27.21132 c 0,3.39719 1.25694,6.42065 3.77085,9.07044 2.51389,2.64979 5.50342,3.97469 8.96853,3.97469 3.46509,0 6.45461,-1.3249 8.96853,-3.97469 2.51388,-2.64979 3.77083,-5.67325 3.77085,-9.07044 l 0,-27.31324 c -2e-5,-0.67939 0.33969,-1.25689 1.01915,-1.73255 0.67942,-0.47556 1.46075,-0.71336 2.34405,-0.71341 0.88325,5e-5 1.63062,0.23772 2.24213,0.71341 0.67939,0.47566 1.01913,1.05316 1.01915,1.73255 l 0,27.31324 c -2e-5,5.09578 -1.93641,9.58002 -5.80916,13.45279 -3.80484,3.80482 -8.32307,5.70724 -13.5547,5.70724 -5.29958,0 -9.8518,-1.90242 -13.65662,-5.70724 -3.80482,-3.87277 -5.70724,-8.35701 -5.70724,-13.45279"
       id="path3138"
       style="font-size:40px;font-style:normal;font-weight:normal;line-height:125%;letter-spacing:0px;word-spacing:0px;fill:#343434;fill-opacity:1;stroke:none;font-family:Dosis;-inkscape-font-specification:Dosis" />
    <path
       d="m 378.58102,312.34441 0,-43.11008 c 0,-0.74734 0.30575,-1.32484 0.91724,-1.73255 0.61149,-0.47556 1.39284,-0.71336 2.34404,-0.71341 0.81532,5e-5 1.52873,0.23772 2.14022,0.71341 0.61149,0.47566 0.91723,1.05316 0.91723,1.73255 l 0,4.6881 c 1.15503,-2.17416 2.92158,-4.00863 5.29959,-5.50342 2.37801,-1.49471 5.16368,-2.24208 8.35706,-2.24213 4.89187,5e-5 9.13834,1.86849 12.73938,5.60533 3.60094,3.73692 5.40145,8.22118 5.40148,13.45279 l 0,27.10941 c -3e-5,0.81532 -0.33976,1.46077 -1.01916,1.93638 -0.67946,0.47562 -1.46079,0.71341 -2.34404,0.71341 -0.81535,0 -1.56272,-0.23772 -2.24213,-0.71341 -0.67947,-0.47561 -1.01918,-1.12106 -1.01915,-1.93638 l 0,-27.10941 c -3e-5,-3.32918 -1.25697,-6.31871 -3.77086,-8.96853 -2.51391,-2.64974 -5.50344,-3.97463 -8.96853,-3.97468 -3.19335,5e-5 -6.01299,1.18904 -8.45895,3.56702 -2.44596,2.37806 -3.66894,5.50344 -3.66894,9.37619 l 0,27.10941 c 0,0.67944 -0.33971,1.29093 -1.01915,1.83447 -0.67944,0.54354 -1.46078,0.81532 -2.34405,0.81532 -0.9512,0 -1.73255,-0.27178 -2.34404,-0.81532 -0.61149,-0.54354 -0.91724,-1.15503 -0.91724,-1.83447"
       id="path3140"
       style="font-size:40px;font-style:normal;font-weight:normal;line-height:125%;letter-spacing:0px;word-spacing:0px;fill:#343434;fill-opacity:1;stroke:none;font-family:Dosis;-inkscape-font-specification:Dosis" />
    <path
       d="m 422.30598,296.34374 0,-11.10874 c 0,-5.23161 1.76654,-9.71587 5.29958,-13.45279 3.60099,-3.73684 7.91539,-5.60528 12.94321,-5.60533 3.12538,5e-5 5.84313,0.74742 8.15321,2.24213 2.37801,1.49479 4.14453,3.32926 5.29958,5.50342 l 0,-34.24347 c -2e-5,-0.67936 0.33969,-1.25687 1.01915,-1.73256 0.67942,-0.47554 1.49474,-0.71333 2.44597,-0.71341 0.95117,8e-5 1.69856,0.23797 2.24213,0.71341 0.61146,0.47569 0.91721,1.0532 0.91723,1.73256 l 0,72.66545 c -2e-5,0.67944 -0.30577,1.29093 -0.91723,1.83447 -0.61152,0.54354 -1.35889,0.81532 -2.24213,0.81532 -0.81535,0 -1.56272,-0.27178 -2.24214,-0.81532 -0.61151,-0.54354 -0.91726,-1.15503 -0.91721,-1.83447 l 0,-4.48427 c -1.15508,2.17421 -3.02351,4.04264 -5.60535,5.60533 -2.51391,1.49477 -5.29961,2.24213 -8.35704,2.24213 -4.82399,0 -9.03647,-1.93638 -12.63746,-5.80915 -3.60099,-3.9407 -5.4015,-8.45893 -5.4015,-13.55471 m 6.62448,0 c 0,3.39719 1.25694,6.45464 3.77085,9.17236 2.51389,2.71774 5.46943,4.0766 8.86664,4.0766 3.26123,0 6.14884,-1.22298 8.66276,-3.66894 2.51388,-2.44596 3.77083,-4.58615 3.77085,-6.42065 l 0,-14.26811 c -2e-5,-3.87275 -1.25697,-6.99813 -3.77085,-9.37619 -2.44599,-2.37798 -5.29961,-3.56697 -8.56087,-3.56702 -3.46511,5e-5 -6.45464,1.32494 -8.96853,3.97468 -2.51391,2.64982 -3.77085,5.63935 -3.77085,8.96853 l 0,11.10874"
       id="path3142"
       style="font-size:40px;font-style:normal;font-weight:normal;line-height:125%;letter-spacing:0px;word-spacing:0px;fill:#343434;fill-opacity:1;stroke:none;font-family:Dosis;-inkscape-font-specification:Dosis" />
    <path
       d="m 471.00556,251.29728 c -0.88325,-0.88319 -1.3249,-1.90235 -1.3249,-3.05745 0,-1.15498 0.44165,-2.14014 1.3249,-2.95554 0.88327,-0.81524 1.97037,-1.2229 3.26128,-1.22298 1.22298,8e-5 2.24213,0.40774 3.05745,1.22298 0.88328,0.8154 1.3249,1.80056 1.3249,2.95554 0,1.1551 -0.44162,2.17426 -1.3249,3.05745 -0.81532,0.81537 -1.83447,1.22303 -3.05745,1.22298 -1.29091,5e-5 -2.37801,-0.40761 -3.26128,-1.22298 m 0,61.04713 0,-43.11008 c 0,-0.67939 0.30574,-1.25689 0.91723,-1.73255 0.6115,-0.47556 1.39285,-0.71336 2.34405,-0.71341 0.9512,5e-5 1.73256,0.23772 2.34407,0.71341 0.67942,0.47566 1.01913,1.05316 1.01913,1.73255 l 0,43.11008 c 0,0.67944 -0.33971,1.29093 -1.01913,1.83447 -0.67946,0.54354 -1.4608,0.81532 -2.34407,0.81532 -0.88327,0 -1.6646,-0.27178 -2.34405,-0.81532 -0.61149,-0.54354 -0.91723,-1.15503 -0.91723,-1.83447"
       id="path3144"
       style="font-size:40px;font-style:normal;font-weight:normal;line-height:125%;letter-spacing:0px;word-spacing:0px;fill:#343434;fill-opacity:1;stroke:none;font-family:Dosis;-inkscape-font-specification:Dosis" />
    <path
       d="m 484.4069,302.25482 c 0,-5.23164 2.00434,-8.86659 6.01299,-10.90492 4.0766,-2.03827 9.98768,-3.05742 17.73322,-3.05745 l 5.19767,0 0,-2.44596 c -2e-5,-3.73684 -0.98519,-6.96416 -2.95553,-9.68193 -1.97038,-2.78565 -4.99384,-4.17847 -9.07045,-4.17852 -2.71774,5e-5 -5.19766,0.50963 -7.43977,1.52873 -2.17421,0.95125 -3.32926,1.42686 -3.46514,1.42681 -0.81532,5e-5 -1.46077,-0.37365 -1.93638,-1.12107 -0.47559,-0.74734 -0.71341,-1.56266 -0.71341,-2.44596 0,-1.29088 1.4608,-2.4799 4.38235,-3.56703 2.92157,-1.08705 6.04695,-1.63059 9.37621,-1.63064 6.38664,5e-5 11.04077,1.86849 13.96234,5.60533 2.98947,3.66899 4.48424,8.35706 4.48429,14.06428 l 0,26.49792 c -5e-5,0.74737 -0.3058,1.39284 -0.91726,1.93638 -0.61152,0.47562 -1.39288,0.71341 -2.34405,0.71341 -0.8833,0 -1.63067,-0.23772 -2.24213,-0.71341 -0.54357,-0.54354 -0.81535,-1.18901 -0.81532,-1.93638 l 0,-4.48427 c -4.55222,5.23164 -9.68193,7.84746 -15.38918,7.84746 -4.0766,0 -7.40583,-1.12106 -9.98765,-3.36319 -2.58186,-2.31006 -3.8728,-5.67326 -3.8728,-10.08959 m 6.62448,-0.61149 c 0,2.85362 0.81532,4.99383 2.44596,6.42064 1.63065,1.35889 3.77086,2.03831 6.42065,2.03831 3.19333,0 6.21682,-1.189 9.07044,-3.56703 2.92155,-2.37801 4.38233,-4.75602 4.38235,-7.13406 l 0,-6.52256 -4.28043,0 c -2.71774,2e-5 -5.02783,0.10191 -6.9302,0.30574 -1.8345,0.20383 -3.66897,0.57756 -5.50344,1.12107 -1.83447,0.54356 -3.22732,1.42684 -4.17849,2.64979 -0.95123,1.22301 -1.42684,2.7857 -1.42684,4.6881"
       id="path3146"
       style="font-size:40px;font-style:normal;font-weight:normal;line-height:125%;letter-spacing:0px;word-spacing:0px;fill:#343434;fill-opacity:1;stroke:none;font-family:Dosis;-inkscape-font-specification:Dosis" />
    <path
       d="m 527.77215,312.34441 0,-43.11008 c 0,-0.67939 0.30575,-1.25689 0.91724,-1.73255 0.61149,-0.47556 1.39285,-0.71336 2.34404,-0.71341 0.88328,5e-5 1.63065,0.23772 2.24214,0.71341 0.61149,0.47566 0.91723,1.05316 0.91726,1.73255 l 0,4.99384 c 1.22295,-2.24208 3.02346,-4.1445 5.4015,-5.70724 2.37798,-1.56264 5.12969,-2.344 8.25509,-2.34405 l 3.56703,0 c 0.67942,5e-5 1.29091,0.3058 1.83447,0.91724 0.54354,0.61154 0.81529,1.32494 0.81532,2.14021 -3e-5,0.81537 -0.27178,1.52878 -0.81532,2.14022 -0.54356,0.61154 -1.15505,0.91729 -1.83447,0.91724 l -3.56703,0 c -3.53306,5e-5 -6.65847,1.39287 -9.37616,4.17851 -2.71777,2.71777 -4.07663,6.2848 -4.07663,10.70109 l 0,25.17302 c 0,0.67944 -0.33971,1.29093 -1.01912,1.83447 -0.61152,0.54354 -1.39288,0.81532 -2.34408,0.81532 -0.88327,0 -1.6646,-0.27178 -2.34404,-0.81532 -0.61149,-0.54354 -0.91724,-1.15503 -0.91724,-1.83447"
       id="path3148"
       style="font-size:40px;font-style:normal;font-weight:normal;line-height:125%;letter-spacing:0px;word-spacing:0px;fill:#343434;fill-opacity:1;stroke:none;font-family:Dosis;-inkscape-font-specification:Dosis" />
    <path
       d="m 559.10024,269.33625 c 0,-0.81527 0.44163,-1.52868 1.3249,-2.14022 0.88327,-0.67939 1.80048,-1.0191 2.7517,-1.01915 1.29091,5e-5 2.07227,0.47566 2.34405,1.42681 l 13.96237,37.50475 13.14704,-37.50475 c 0.40763,-0.95115 1.155,-1.42676 2.24213,-1.42681 0.88322,5e-5 1.76649,0.33976 2.64979,1.01915 0.95118,0.61154 1.42676,1.35891 1.42681,2.24213 -5e-5,0.40771 -0.068,0.67947 -0.20383,0.81532 l -15.79683,42.80433 -1.83447,4.99384 c -0.33974,0.88327 -1.01918,2.47993 -2.03831,4.79001 -0.95122,2.31006 -1.76654,3.97469 -2.44596,4.99384 l -2.64979,4.0766 c -1.15505,1.69857 -2.27612,2.92155 -3.3632,3.66894 -1.01915,0.74735 -2.27612,1.42679 -3.77085,2.0383 -1.49477,0.67942 -3.02349,1.01913 -4.58618,1.01915 -2.0383,-2e-5 -3.05745,-0.98521 -3.05745,-2.95553 0,-2.03833 0.67944,-3.05748 2.0383,-3.05745 3.12538,-3e-5 6.01299,-1.90243 8.66278,-5.70725 2.71772,-3.73689 4.75602,-8.391 6.1149,-13.96236 l -16.61215,-42.70242 c -0.20383,-0.33968 -0.30575,-0.64542 -0.30575,-0.91723"
       id="path3150"
       style="font-size:40px;font-style:normal;font-weight:normal;line-height:125%;letter-spacing:0px;word-spacing:0px;fill:#343434;fill-opacity:1;stroke:none;font-family:Dosis;-inkscape-font-specification:Dosis" />
  </g>
</svg>
