<?xml version="1.0" encoding="UTF-8" standalone="no"?>
<!-- Created with Inkscape (http://www.inkscape.org/) -->

<svg
   xmlns:dc="http://purl.org/dc/elements/1.1/"
   xmlns:cc="http://creativecommons.org/ns#"
   xmlns:rdf="http://www.w3.org/1999/02/22-rdf-syntax-ns#"
   xmlns:svg="http://www.w3.org/2000/svg"
   xmlns="http://www.w3.org/2000/svg"
   version="1.1"
   width="108.08001"
   height="105.58044"
   id="svg3135">
  <defs
     id="defs3137" />
  <metadata
     id="metadata3140">
    <rdf:RDF>
      <cc:Work
         rdf:about="">
        <dc:format>image/svg+xml</dc:format>
        <dc:type
           rdf:resource="http://purl.org/dc/dcmitype/StillImage" />
        <dc:title></dc:title>
      </cc:Work>
    </rdf:RDF>
  </metadata>
  <path
     d="M 29.1875,0 C 26.70292,0.0163 24.19145,0.31972 21.65625,0.9375 14.441305,2.69574 8.884023,7.5636 4.5,15.53125 0.386123,23.00739 -1.171058,30.25269 0.90625,39.5 c 2.077308,9.24731 7.483571,20.58406 16.90625,37.65625 4.04022,7.32017 7.93819,13.99917 10.96875,18.9375 1.51528,2.46916 2.791,4.49441 3.8125,5.96875 0.51075,0.73717 0.93872,1.35505 1.34375,1.84375 0.20252,0.24435 0.41329,0.45914 0.65625,0.6875 0.24296,0.22836 0.3622,0.54581 1.375,0.8125 1.5414,0.41555 1.92049,-0.0158 2.625,-0.25 0.70451,-0.23421 1.47931,-0.55426 2.375,-0.96875 1.79138,-0.82898 4.07464,-2.03193 6.71875,-3.5 5.28821,-2.93614 12.01578,-6.98109 18.84375,-11.25 6.82797,-4.26891 13.75435,-8.76096 19.34375,-12.625 5.5894,-3.86404 9.65544,-6.80075 11.65625,-9.0625 6.92353,-7.82618 10.3738,-15.82299 10.53125,-24.71875 0.0676,-3.81314 -0.40512,-7.12912 -1.21875,-10.125 a 2.6106388,2.6106388 0 0 0 -3.8125,-1.5625 L 89.375,39.25 83.6875,34.09375 90.96875,18.5 a 2.6106388,2.6106388 0 0 0 -1.5,-3.53125 c -8.24646,-2.9943 -17.51666,-2.12687 -26.15625,2.46875 -0.009,0.005 -0.02255,-0.005 -0.03125,0 l -4.5,2.375 L 56.0625,15.5 C 49.7896,5.51651 39.94942,-0.07099 29.1875,0 z m 0.03125,5.21875 c 8.96498,-0.0591 16.98776,4.38909 22.4375,13.0625 L 55.625,24.625 a 2.6106388,2.6106388 0 0 0 3.4375,0.9375 l 6.65625,-3.53125 a 2.6106388,2.6106388 0 0 0 0.03125,0 C 72.26897,18.55742 78.81912,17.78036 84.875,19.1875 L 70.03125,51 a 2.6106388,2.6106388 0 0 0 3.65625,3.375 L 85.125,47.75 102.5,37.6875 c 0.23799,1.61759 0.37797,3.31826 0.34375,5.25 -0.13541,7.65016 -2.86852,14.16563 -9.21875,21.34375 -0.90264,1.02037 -5.22433,4.45163 -10.71875,8.25 -5.49442,3.79837 -12.35413,8.26679 -19.125,12.5 -6.77087,4.23321 -13.4647,8.22864 -18.625,11.09375 -2.58015,1.43256 -4.79196,2.57993 -6.375,3.3125 -0.54804,0.25361 -0.87968,0.38734 -1.25,0.53125 -0.20401,-0.27135 -0.351,-0.47953 -0.625,-0.875 C 35.98239,97.76033 34.70384,95.79497 33.21875,93.375 30.24857,88.53506 26.38178,81.88459 22.375,74.625 13.019959,57.67536 7.846649,46.59551 6,38.375 4.153351,30.15449 5.324207,24.8561 9.0625,18.0625 13.012237,10.88413 17.169193,7.39808 22.90625,6 25.07689,5.47106 27.15093,5.23229 29.21875,5.21875 z m -5.8125,27.5 c -0.219346,0.0096 -0.437358,0.03769 -0.6875,0.09375 -2.035621,0.44854 -2.57352,2.0659 -2.125,3.6875 0.51755,1.75961 1.21296,3.90442 1.9375,5.25 0.72457,1.34559 2.71691,2.05203 4.0625,1.5 1.31108,-0.55206 1.86326,-1.3979 1.65625,-2.8125 -0.2414,-1.6906 -1.08471,-3.75664 -1.84375,-5.34375 -0.633973,-1.418918 -1.464575,-2.441972 -3,-2.375 z m -7.84375,1.125 c -0.220289,0.0096 -0.468608,0.03768 -0.71875,0.09375 -2.00114,0.44852 -2.54554,2.06588 -2.0625,3.6875 0.48302,1.75959 1.15046,3.90441 1.875,5.25 0.72454,1.34561 2.78267,2.08329 4.09375,1.53125 1.34559,-0.55205 1.86327,-1.42915 1.65625,-2.84375 -0.20709,-1.6906 -1.11921,-3.75664 -1.84375,-5.34375 -0.63399,-1.418918 -1.457975,-2.441985 -3,-2.375 z M 35.71875,35.125 c -1.724095,0.105193 -2.749501,1.588021 -3.625,4.09375 -2.89819,8.17704 -7.25806,10.76188 -10.15625,12.625 -2.898191,1.86314 -2.70632,3.88616 -1.84375,5.09375 0.93156,1.31108 2.61933,1.96084 5,0.71875 C 33.5813,53.27447 37.12443,44.22173 38.125,40.875 39.02205,37.8043 38.81165,35.53577 36.5,35.15625 36.223984,35.113123 35.965049,35.109972 35.71875,35.125 z m 8.5,6.71875 c -1.5235,-0.119706 -2.689478,0.808615 -3,1.84375 -0.44851,1.38007 -0.24324,2.69869 1.34375,3.90625 1.44911,1.10409 4.46236,2.6687 6.1875,3.53125 1.72511,0.86256 3.60096,0.20115 4.1875,-0.9375 0.58654,-1.13857 0.73557,-2.56518 -0.4375,-3.53125 -1.17308,-0.96606 -4.4136,-3.03593 -6.65625,-4.3125 -0.569293,-0.310525 -1.117167,-0.460098 -1.625,-0.5 z m 19.21875,1.375 c -1.141809,-0.03072 -2.462955,0.5983 -3.1875,2.125 -0.75905,1.58711 -2.28011,4.69556 -4.28125,7.59375 -3.0707,4.45079 -7.04709,5.65824 -9.53125,5.96875 -2.4842,0.31051 -3.49023,1.41289 -3.59375,3 -0.10342,1.7941 1.28858,3.01825 3.53125,3.15625 3.0362,0.17253 6.8722,-0.57849 11.875,-4.71875 5.17534,-4.31279 7.29823,-10.84913 7.78125,-12.78125 0.48304,-1.96664 -0.25455,-3.4727 -1.53125,-4.09375 -0.310518,-0.155262 -0.681897,-0.239759 -1.0625,-0.25 z"
     id="path3024-6-50-4-0-1-7"
     style="font-size:medium;font-style:normal;font-variant:normal;font-weight:normal;font-stretch:normal;text-indent:0;text-align:start;text-decoration:none;line-height:normal;letter-spacing:normal;word-spacing:normal;text-transform:none;direction:ltr;block-progression:tb;writing-mode:lr-tb;text-anchor:start;baseline-shift:baseline;color:#000000;fill:#343434;fill-opacity:0.78431373;stroke:none;stroke-width:5.22075558;marker:none;visibility:visible;display:inline;overflow:visible;enable-background:accumulate;font-family:Sans;-inkscape-font-specification:Sans" />
</svg>
